<svg xmlns="http://www.w3.org/2000/svg" viewBox="0 0 64 64" fill="none">
  <path fill="#ff0" d="m27.22,47.07c-6.64-2.04-11.47-8.22-11.47-15.53,0-8.97,7.28-16.25,16.25-16.25,4.63,0,8.79,1.94,11.75,5.05h8.33c-3.93-7.04-11.45-11.8-20.09-11.8-12.7,0-23,10.3-23,23,0,11.06,7.81,20.3,18.22,22.5v-6.97Z"/>
  <g stroke="#ff0" stroke-width="4px">
    <line x1="19" y1="60.2" x2="21.53" y2="55"/>
    <line x1="8.53" y1="52.56" x2="12.76" y2="48.61"/>
    <line x1="2" y1="41.27" x2="7.5" y2="39.38"/>
    <line x1=".65" y1="28.31" x2="6.42" y2="29"/>
    <line x1="4.7" y1="15.92" x2="9.77" y2="18.7"/>
    <line x1="13.4" y1="6.24" x2="16.8" y2="10.92"/>
    <line x1="25.3" y1="1" x2="26.55" y2="6.55"/>
    <line x1="38.33" y1="1" x2="37.22" y2="6.55"/>
    <line x1="50.23" y1="6.24" x2="47" y2="10.92"/>
  </g>
  <path fill="#fff" d="m52.55,37.53v3.06h-11.54c-.13-4.87,7.52-7.84,8.24-12.23.1-3.26-4.87-2.91-4.57.4l-3.28-.33c2.12-10.95,18.58-2.72,7.27,6.29-1.54,1.46-1.89,1.63-2.65,2.81h6.54Z"/>
  <path fill="#fff" d="m41.31,56.64l3.19-.39c.08,2.21,2.67,3.39,4.15,1.73,1.86-2.18-.12-5.93-3.11-4.54l.36-2.68c2.15.29,3.59-2.02,2.23-3.6-1.36-1.25-3.51-.11-3.54,1.78l-3.04-.52c1.33-9.17,16.37-2.3,7.92,3.53,3.71.67,4.2,5.67,1.59,7.93-3.1,3.14-9.48,1.44-9.76-3.26Z"/>
  <rect stroke="#888" stroke-width="4px" stroke-miterlimit="1" x="32" y="24.7" width="28.41" height="35.51"/>
</svg>