<?xml version="1.0" encoding="UTF-8"?>
<svg xmlns="http://www.w3.org/2000/svg" viewBox="0 0 240 240">
  <g fill="#ff0">
  <path d="m67.63,200.47l4.31,26.86h0s0,0,0,0l22.74-14.71c-9.72-2.65-18.82-6.79-27.05-12.15Z"/>
  <path d="m39.43,172.21l-7.02,26.4h0l26.92-4.21c-7.73-6.31-14.45-13.8-19.9-22.19Z"/>
  <path d="m25.17,134.99l-17.18,21.3h0s0,0,0,0l26.38,7.12c-4.46-8.78-7.61-18.34-9.19-28.43Z"/>
  <path d="m24,120c0-8.56,1.13-16.86,3.23-24.77l-24.35,12.47h0,0s21.25,17.28,21.25,17.28c-.08-1.65-.13-3.31-.13-4.98Z"/>
  <path d="m45.26,59.75l-27.29,1.48,12.37,24.39c3.62-9.43,8.68-18.15,14.92-25.88Z"/>
  <path d="m76.07,34.62l-25.4-9.69h0s1.38,27.27,1.38,27.27c7.02-7.03,15.12-12.98,24.03-17.57Z"/>
  <path d="m114.49,24.16l-19.18-19.11h0s0,0,0,0l-9.78,25.33c9.07-3.49,18.8-5.65,28.96-6.22Z"/>
  <path d="m153.85,30.15l-9.69-25.09h0s0,0,0,0l-19.15,19.08c10.11.52,19.8,2.61,28.84,6.02Z"/>
  <path d="m187.45,51.69l1.35-26.77h0s0,0,0,0l-25.09,9.58c8.79,4.5,16.78,10.32,23.74,17.19Z"/>
  <path d="m61.01,120.79c-.42-32.34,25.73-59.28,58.06-59.78,14.01-.22,26.91,4.45,37.14,12.41.96.75,2.3.81,3.35.18l18.75-11.23c1.13-.68,1.31-2.25.35-3.17-15.95-15.4-37.93-24.59-62.06-23.64-44.1,1.73-79.75,37.75-81.06,81.87-1.18,39.74,25.1,73.53,61.28,83.83,1.28.36,2.56-.57,2.57-1.9l.2-21.91c.01-1.22-.7-2.34-1.83-2.8-21.33-8.69-36.43-29.49-36.75-53.87Z"/>
  </g>
  <path fill="gray" d="m237.95,116.8c-.06-2.12-1.8-3.8-3.92-3.8h-6.61c-2.05,0-3.76-1.55-3.97-3.58-.2-2.01-.46-4.01-.78-5.98-.32-2.02.93-3.95,2.91-4.48l6.31-1.69c2.11-.56,3.38-2.71,2.87-4.83-.48-2-1.01-3.99-1.59-5.95-.62-2.09-2.79-3.31-4.9-2.74l-6.31,1.69c-1.97.53-4.03-.52-4.76-2.43-.72-1.88-1.49-3.74-2.31-5.57-.84-1.87-.13-4.06,1.65-5.09l5.65-3.26c1.89-1.09,2.56-3.49,1.52-5.41-.98-1.81-2.01-3.59-3.09-5.33-1.14-1.86-3.55-2.47-5.44-1.38l-12.28,7.09s.04.06.06.09l-46.59,26.9c-8.52-10.69-21.64-17.54-36.37-17.54-25.68,0-46.5,20.82-46.5,46.5,0,23.3,17.14,42.6,39.5,45.97v68.05c0,2.12,1.68,3.87,3.8,3.93,1.06.03,2.13.05,3.2.05s2.14-.02,3.2-.05c2.12-.06,3.8-1.81,3.8-3.93v-6.62c0-2.03,1.54-3.74,3.56-3.94,2.03-.2,4.04-.47,6.03-.79,2.01-.32,3.92.93,4.45,2.89l1.72,6.41c.55,2.06,2.65,3.3,4.72,2.81,2.06-.49,4.1-1.04,6.12-1.64,2.04-.61,3.23-2.73,2.68-4.79l-1.71-6.4c-.53-1.96.51-4.01,2.41-4.73,1.9-.72,3.77-1.5,5.62-2.33,1.86-.83,4.04-.13,5.05,1.64l3.31,5.73c1.07,1.85,3.41,2.5,5.29,1.49,1.86-1.01,3.69-2.07,5.49-3.17,1.81-1.12,2.41-3.47,1.35-5.32l-3.26-5.64c-1.05-1.81-.56-4.12,1.14-5.35,1.58-1.15,3.13-2.34,4.64-3.57,1.63-1.32,3.99-1.2,5.47.28l4.58,4.58c1.52,1.52,3.96,1.54,5.52.07,1.52-1.44,3.01-2.93,4.45-4.45,1.47-1.55,1.44-4-.07-5.52l-4.58-4.58c-1.48-1.48-1.6-3.84-.28-5.47,1.23-1.51,2.42-3.06,3.57-4.64,1.23-1.7,3.54-2.19,5.35-1.14l5.62,3.25c1.85,1.07,4.22.47,5.35-1.36,1.1-1.79,2.15-3.6,3.15-5.45,1.02-1.88.36-4.24-1.49-5.32l-5.75-3.32c-1.74-1-2.44-3.16-1.61-4.99.84-1.87,1.64-3.78,2.37-5.71.71-1.87,2.73-2.9,4.66-2.38l6.45,1.73c2.05.55,4.17-.64,4.78-2.68.6-2.02,1.15-4.07,1.64-6.14.49-2.07-.75-4.16-2.8-4.71l-6.46-1.73c-1.93-.52-3.17-2.41-2.85-4.39.33-2.02.59-4.07.8-6.13.2-2,1.88-3.51,3.89-3.51h6.67c2.12,0,3.86-1.68,3.92-3.8.03-1.06.05-2.13.05-3.2s-.02-2.14-.05-3.2Zm-113.12,32.81c-.47.08-.95.14-1.42.19-.05,0-.1.01-.16.02-.37.04-.74.07-1.11.09-.16.01-.32.03-.47.04-.27.02-.54.02-.81.03-.25,0-.5.02-.75.02-.25,0-.49,0-.73-.01-.26,0-.51,0-.77-.02-.31-.01-.62-.04-.92-.06-.17-.01-.34-.02-.51-.04-.41-.04-.83-.09-1.23-.14-.05,0-.1-.01-.15-.02-.95-.14-1.89-.31-2.8-.53h0c-13.19-3.15-23-15.01-23-29.17,0-16.57,13.43-30,30-30,8.61,0,16.36,3.63,21.83,9.44h0c3.45,3.66,5.99,8.18,7.26,13.21.02.09.04.19.07.29.1.39.19.79.27,1.19.03.17.06.33.09.5.06.33.12.67.17,1,.03.2.05.41.08.62.04.3.08.61.11.92.02.23.04.46.05.68.02.29.04.58.05.88.01.24.01.48.02.72,0,.29,0,.58,0,.87,0,.24-.01.49-.02.73,0,.29-.02.57-.04.86-.01.2-.03.4-.05.59-.06.74-.14,1.48-.26,2.21-.01.1-.03.19-.05.28-.12.74-.27,1.47-.45,2.19-.01.04-.02.09-.03.13-.2.8-.44,1.59-.7,2.37,0,0,0,0,0,0-3.52,10.26-12.52,18.14-23.56,19.94Zm55.71,29.3c-10.72,11.02-24.41,19.12-39.79,23.01-4.45,1.12-8.76-2.29-8.76-6.88v-24.97c0-2.96,1.85-5.57,4.61-6.63,4.63-1.77,8.9-4.25,12.68-7.32,2.3-1.87,5.49-2.17,8.06-.69l21.61,12.47c3.97,2.29,4.79,7.73,1.59,11.01Zm20.76-35.9c-1.25,4.4-6.36,6.41-10.33,4.12l-21.63-12.49c-2.57-1.48-3.9-4.4-3.43-7.33.38-2.38.58-4.82.58-7.31s-.2-4.93-.58-7.31c-.47-2.93.87-5.84,3.43-7.33l21.63-12.49c3.96-2.29,9.08-.29,10.33,4.12,2.07,7.31,3.19,15.03,3.19,23.01s-1.12,15.69-3.19,23.01Z"/>
</svg>