<?xml version="1.0" encoding="UTF-8"?>
<svg width="64" xmlns="http://www.w3.org/2000/svg" viewBox="0 0 240 240" stroke-width="16px" fill="none">
  <g stroke="gray">
    <circle cx="120" cy="120" r="40"/>
    <path d="m201.86,73.75c7.73,13.65,12.14,29.44,12.14,46.25,0,51.91-42.09,94-94,94"/>
    <line x1="120" y1="238" x2="120" y2="157"/>
    <line x1="217" y1="120" x2="238" y2="120"/>
    <line x1="145" y1="214" x2="150.54" y2="233.98"/>
    <line x1="169" y1="205" x2="179" y2="222.19"/>
    <line x1="189" y1="189" x2="203.44" y2="203.44"/>
    <line x1="152" y1="138" x2="222.19" y2="179"/>
    <line x1="215" y1="145" x2="233.98" y2="150.54"/>
    <line x1="212" y1="95" x2="233.98" y2="89.46"/>
    <line x1="151" y1="101" x2="222.19" y2="61"/>
  </g>
  <g stroke="#ff0">
    <path stroke-width="28px" d="m99.8,189.65c-30.21-8.75-52.3-36.62-52.3-69.65,0-40.04,32.46-72.5,72.5-72.5,19.46,0,37.12,7.66,50.14,20.14"/>
    <line x1="71.94" y1="227.33" x2="81.16" y2="207.81"/>
    <line x1="32.41" y1="198.61" x2="48.28" y2="183.81"/>
    <line x1="7.98" y1="156.3" x2="28.53" y2="149.2"/>
    <line x1="2.88" y1="107.7" x2="24.51" y2="110.11"/>
    <line x1="17.98" y1="61.24" x2="37.07" y2="71.62"/>
    <line x1="50.67" y1="24.93" x2="63.37" y2="42.48"/>
    <line x1="95.3" y1="5.05" x2="100" y2="26.09"/>
    <line x1="144.16" y1="5.05" x2="140.01" y2="26.09"/>
    <line x1="188.8" y1="24.93" x2="176.62" y2="42.48"/>
  </g>
</svg>