<?xml version="1.0" encoding="UTF-8"?>
<svg id="b" data-name="Layer 2" xmlns="http://www.w3.org/2000/svg" width="256" height="256" viewBox="0 0 256 256">
  <g id="c" data-name="Layer 1">
    <rect width="256" height="256" fill="#182a38"/>
    <g>
      <g>
        <path d="m76.25,205.69l4.21,26.24h0l22.21-14.37c-9.49-2.59-18.38-6.63-26.42-11.87Z" fill="#ff0"/>
        <path d="m48.7,178.08l-6.86,25.79h0l26.3-4.11c-7.55-6.16-14.12-13.48-19.44-21.68h0Z" fill="#ff0"/>
        <path d="m34.77,141.72l-16.78,20.81h0l25.77,6.96c-4.36-8.58-7.43-17.92-8.98-27.77h0Z" fill="#ff0"/>
        <path d="m33.63,127.08c0-8.36,1.1-16.47,3.16-24.2l-23.79,12.18h0l20.76,16.88c-.08-1.61-.13-3.23-.13-4.86Z" fill="#ff0"/>
        <path d="m54.4,68.23l-26.66,1.45,12.08,23.82c3.54-9.21,8.48-17.73,14.57-25.28h0Z" fill="#ff0"/>
        <path d="m84.49,43.68l-24.81-9.47h0l1.35,26.64c6.86-6.87,14.77-12.68,23.47-17.16h0Z" fill="#ff0"/>
        <path d="m122.02,33.46l-18.74-18.67h0l-9.55,24.74c8.86-3.41,18.36-5.52,28.29-6.08Z" fill="#ff0"/>
        <path d="m160.47,39.31l-9.47-24.51h0l-18.71,18.64c9.88.51,19.34,2.55,28.17,5.88h0Z" fill="#ff0"/>
        <path d="m193.29,60.36l1.32-26.15h0l-24.51,9.36c8.59,4.4,16.39,10.08,23.19,16.79h0Z" fill="#ff0"/>
        <path d="m112.1,185.84c-24.86-7.48-42.95-30.3-42.95-57.31,0-33.05,27.26-59.94,60.77-59.94,17.29,0,32.84,7.21,43.88,18.62h31.11c-14.76-25.97-42.82-43.54-75.13-43.54-47.47,0-86.03,38.03-86.03,84.86,0,40.79,29.25,74.89,68.08,83.02v-25.71h.27Z" fill="#ff0"/>
      </g>
      <g>
        <path d="m206.78,150.69v11.28h-43.21c-.53-17.97,28.19-28.98,30.85-45.12.4-12.07-18.22-10.75-17.15,1.44l-12.23-1.18c7.98-40.39,69.54-9.97,27.13,23.21-5.72,5.38-7.05,6.03-9.97,10.36h24.6Z" fill="#fff"/>
        <path d="m164.76,221.12l11.97-1.44c.27,8.13,9.97,12.46,15.56,6.43,6.91-8-.4-21.9-11.57-16.79l1.33-9.84c7.98,1.05,13.43-7.48,8.38-13.25-5.05-4.59-13.16-.39-13.3,6.56l-11.44-1.97c4.92-33.84,61.16-8.52,29.65,12.98,13.83,2.49,15.69,20.85,5.98,29.25-11.57,11.54-35.5,5.25-36.43-12.07h0l-.13.13Z" fill="#fff"/>
        <path d="m226.39,241.2h-86.7c-9.16,0-16.61-7.45-16.61-16.61v-111.48c0-9.16,7.45-16.61,16.61-16.61h86.7c9.16,0,16.61,7.45,16.61,16.61v111.48c0,9.16-7.45,16.61-16.61,16.61Zm-86.7-131.02c-1.62,0-2.93,1.31-2.93,2.93v111.48c0,1.62,1.31,2.93,2.93,2.93h86.7c1.62,0,2.93-1.31,2.93-2.93v-111.48c0-1.62-1.31-2.93-2.93-2.93h-86.7Z" fill="#888"/>
      </g>
    </g>
  </g>
</svg>