<?xml version="1.0" encoding="UTF-8"?>
<svg width="20" xmlns="http://www.w3.org/2000/svg" viewBox="0 0 20 20" fill="none">
  <g stroke="#ff0">
    <path stroke-width="2px" d="m8.72,14.4c-1.91-.55-3.3-2.31-3.3-4.4,0-2.53,2.05-4.58,4.58-4.58,1.23,0,2.34.48,3.17,1.27"/>
    <line x1="6.97" y1="16.78" x2="7.55" y2="15.54"/>
    <line x1="2.93" y1="12.29" x2="4.23" y2="11.84"/>
    <line x1="3.56" y1="6.29" x2="4.76" y2="6.95"/>
    <line x1="8.44" y1="2.74" x2="8.74" y2="4.07"/>
    <line x1="4.47" y1="14.96" x2="5.47" y2="14.03"/>
    <line x1="2.61" y1="9.22" x2="3.97" y2="9.38"/>
    <line x1="5.62" y1="4" x2="6.42" y2="5.11"/>
    <line x1="11.53" y1="2.74" x2="11.26" y2="4.07"/>
    <line x1="14.34" y1="4" x2="13.57" y2="5.11"/>
  </g>
  <g stroke="gray" stroke-width="1.5px">
    <circle cx="10" cy="10" r="2"/>
    <path d="m15.17,7.08c.49.86.77,1.86.77,2.92,0,3.28-2.66,5.93-5.93,5.93"/>
    <line x1="10" y1="17.45" x2="10" y2="12.34"/>
    <line x1="16.12" y1="10" x2="17.45" y2="10"/>
    <line x1="13.09" y1="15.37" x2="13.72" y2="16.45"/>
    <line x1="12.02" y1="11.14" x2="16.45" y2="13.72"/>
    <line x1="11.96" y1="8.8" x2="16.45" y2="6.28"/>
  </g>
</svg>